#!OML:ASF H:\MichaelJackson\Top Level 1\Subject 1\Session 1\male.ASF
:FULLY-SPECIFIED
:DEGREES
577
root 6.98616 16.3853 -3.57502 -166.389 76.6361 -173.35
lowerback 6.637 -0.633186 -2.33342
upperback 2.35763 -0.838215 3.37578
thorax -1.19912 -0.396767 4.8715
lowerneck -5.43042 -13.4564 -3.96473
upperneck 10.6034 -18.2292 5.03654
head 4.89991 -8.81078 0.983883
rclavicle 2.76311e-014 -8.74653e-015
rhumerus 28.6651 15.104 -73.8421
rradius 133.841
rwrist -46.1452
rhand -25.766 -21.3945
rfingers 7.12502
rthumb 0.771761 -771.373
lclavicle 2.76311e-014 -8.74653e-015
lhumerus -39.7747 -17.7282 92.528
lradius 55.1169
lwrist 23.5346
lhand -21.3303 -3.70658
lfingers 7.12502
lthumb 5.05547 26.2131
rfemur -52.6444 -12.8645 14.1811
rtibia 49.4582
rfoot 10.4775 4.48723
rtoes -29.2361
lfemur -16.7207 -3.88822 -19.5006
ltibia 44.1366
lfoot -32.3404 10.9386
ltoes 8.27738
578
root 6.92726 16.3997 -3.56876 -165.68 77.5545 -172.594
lowerback 6.43999 -0.612666 -2.4428
upperback 2.2997 -0.825363 3.24066
thorax -1.1513 -0.393479 4.78838
lowerneck -5.50625 -13.4184 -3.89099
upperneck 10.85 -18.1915 4.99598
head 4.97668 -8.78302 0.950948
rclavicle -3.95581e-014 2.78299e-015
rhumerus 28.6149 15.0329 -73.8348
rradius 133.821
rwrist -46.2472
rhand -25.6332 -21.2421
rfingers 7.12502
rthumb 0.899983 -771.22
lclavicle -3.95581e-014 2.78299e-015
lhumerus -38.7874 -18.4413 91.6959
lradius 54.9207
lwrist 24.0615
lhand -21.2906 -3.38583
lfingers 7.12502
lthumb 5.09376 26.533
rfemur -52.9831 -13.2092 14.3756
rtibia 51.5789
rfoot 11.1953 4.9659
rtoes -27.9808
lfemur -16.5532 -3.97971 -19.6114
ltibia 43.7026
lfoot -32.2579 11.4283
ltoes 9.13226
579
root 6.8699 16.4099 -3.56076 -164.885 78.4039 -171.741
lowerback 6.23785 -0.605124 -2.54395
upperback 2.24746 -0.827928 3.10833
thorax -1.09318 -0.397905 4.70464
lowerneck -5.57113 -13.3852 -3.8226
upperneck 11.0868 -18.1627 4.98111
head 5.05209 -8.75866 0.926434
rclavicle 1.72943e-014 8.34896e-015
rhumerus 28.4859 15.0441 -73.8314
rradius 133.824
rwrist -46.2316
rhand -25.505 -21.0476
rfingers 7.12502
rthumb 1.02379 -771.025
lclavicle 1.72943e-014 8.34896e-015
lhumerus -37.7341 -19.1674 90.874
lradius 54.6923
lwrist 24.4639
lhand -21.2053 -3.09464
lfingers 7.12502
lthumb 5.17616 26.8221
rfemur -53.1903 -13.5233 14.5051
rtibia 53.5719
rfoot 12.0187 5.69194
rtoes -26.8235
lfemur -16.4666 -3.84583 -19.6785
ltibia 43.4234
lfoot -32.204 11.756
ltoes 9.70205
580
root 6.81403 16.4166 -3.55085 -163.969 79.1786 -170.753
lowerback 6.03787 -0.61286 -2.64388
upperback 2.20235 -0.849187 2.98779
thorax -1.02679 -0.411656 4.63386
lowerneck -5.62415 -13.3572 -3.76609
upperneck 11.2997 -18.1431 4.99642
head 5.12261 -8.73822 0.913058
rclavicle -8.94531e-016 -1.27222e-014
rhumerus 28.2901 15.1272 -73.8131
rradius 133.853
rwrist -46.109
rhand -25.3878 -20.8163
rfingers 7.12502
rthumb 1.13698 -770.793
lclavicle -8.94531e-016 -1.27222e-014
lhumerus -36.619 -19.9001 90.0759
lradius 54.4412
lwrist 24.731
lhand -21.0703 -2.83542
lfingers 7.12502
lthumb 5.30644 27.0781
rfemur -53.2474 -13.8052 14.5874
rtibia 55.3931
rfoot 12.8646 6.54992
rtoes -25.6827
lfemur -16.4501 -3.5042 -19.6951
ltibia 43.2792
lfoot -32.1654 11.944
ltoes 9.96451
581
root 6.75963 16.4205 -3.53897 -162.901 79.8821 -169.597
lowerback 5.84743 -0.635644 -2.75245
upperback 2.16623 -0.889359 2.88556
thorax -0.953993 -0.43487 4.58841
lowerneck -5.66412 -13.3351 -3.72614
upperneck 11.4783 -18.1331 5.04474
head 5.18542 -8.72231 0.912685
rclavicle 1.55052e-014 7.95139e-015
rhumerus 28.0429 15.2651 -73.7654
rradius 133.904
rwrist -45.9031
rhand -25.2858 -20.5605
rfingers 7.12502
rthumb 1.23555 -770.537
lclavicle 1.55052e-014 7.95139e-015
lhumerus -35.4496 -20.6322 89.3149
lradius 54.1791
lwrist 24.8692
lhand -20.8909 -2.60894
lfingers 7.12502
lthumb 5.47964 27.3002
rfemur -53.1386 -14.0467 14.638
rtibia 56.9982
rfoot 13.6593 7.41378
rtoes -24.4793
lfemur -16.4861 -2.97721 -19.661
ltibia 43.2461
lfoot -32.1331 12.0253
ltoes 9.90768
582
root 6.70668 16.4219 -3.52517 -161.655 80.5267 -168.243
lowerback 5.67349 -0.672073 -2.8815
upperback 2.13999 -0.947316 2.80564
thorax -0.877532 -0.467035 4.57908
lowerneck -5.68886 -13.3185 -3.70611
upperneck 11.6179 -18.1314 5.12545
head 5.23887 -8.71073 0.926016
rclavicle 1.70955e-014 1.94809e-014
rhumerus 27.7608 15.4426 -73.6802
rradius 133.969
rwrist -45.6418
rhand -25.2045 -20.2936
rfingers 7.12502
rthumb 1.3141 -770.269
lclavicle 1.70955e-014 1.94809e-014
lhumerus -34.2402 -21.3527 88.6031
lradius 53.9197
lwrist 24.8981
lhand -20.6812 -2.41646
lfingers 7.12502
lthumb 5.68214 27.4874
rfemur -52.8524 -14.2324 14.669
rtibia 58.3423
rfoot 14.3379 8.16808
rtoes -23.1809
lfemur -16.5543 -2.28828 -19.5821
ltibia 43.2999
lfoot -32.1021 12.0386
ltoes 9.53351
583
root 6.65517 16.4212 -3.50968 -160.205 81.1334 -166.663
lowerback 5.521 -0.719163 -3.04164
upperback 2.12398 -1.01988 2.7469
thorax -0.799783 -0.506649 4.61044
lowerneck -5.69688 -13.3065 -3.70536
upperneck 11.7198 -18.1369 5.23593
head 5.2828 -8.70299 0.952385
rclavicle 2.58917e-014 2.5842e-015
rhumerus 27.4585 15.6437 -73.5589
rradius 134.037
rwrist -45.3522
rhand -25.1487 -20.0289
rfingers 7.12502
rthumb 1.36792 -770.004
lclavicle 2.58917e-014 2.5842e-015
lhumerus -33.0098 -22.0542 87.9497
lradius 53.6772
lwrist 24.847
lhand -20.4632 -2.26091
lfingers 7.12502
lthumb 5.89265 27.6372
rfemur -52.3849 -14.3427 14.6882
rtibia 59.382
rfoot 14.8385 8.72718
rtoes -21.8139
lfemur -16.6345 -1.45845 -19.4699
ltibia 43.4176
lfoot -32.0699 12.0222
ltoes 8.85999
584
root 6.60508 16.4188 -3.49289 -158.514 81.7281 -164.82
lowerback 5.39226 -0.773932 -3.24045
upperback 2.11729 -1.10374 2.70437
thorax -0.722965 -0.552155 4.68141
lowerneck -5.68756 -13.2972 -3.72061
upperneck 11.7917 -18.1468 5.3713
head 5.31852 -8.69784 0.989961
rclavicle -2.5345e-015 -9.54166e-015
rhumerus 27.1475 15.8538 -73.4119
rradius 134.097
rwrist -45.0591
rhand -25.1223 -19.7819
rfingers 7.12502
rthumb 1.39344 -769.757
lclavicle -2.5345e-015 -9.54166e-015
lhumerus -31.7822 -22.7311 87.3611
lradius 53.4653
lwrist 24.7501
lhand -20.2601 -2.14656
lfingers 7.12502
lthumb 6.08869 27.7459
rfemur -51.7417 -14.358 14.7015
rtibia 60.0801
rfoot 15.0992 9.0487
rtoes -20.4659
lfemur -16.7102 -0.506082 -19.3393
ltibia 43.5794
lfoot -32.0354 12.0088
ltoes 7.92721
585
root 6.55634 16.4148 -3.4753 -156.516 82.34 -162.652
lowerback 5.2853 -0.832936 -3.48136
upperback 2.1177 -1.19482 2.66914
thorax -0.648514 -0.601584 4.78441
lowerneck -5.6625 -13.2888 -3.74559
upperneck 11.8462 -18.1588 5.52531
head 5.34904 -8.69383 1.03576
rclavicle 8.29926e-015 -1.59028e-015
rhumerus 26.8344 16.0594 -73.2579
rradius 134.137
rwrist -44.7823
rhand -25.1307 -19.5649
rfingers 7.12502
rthumb 1.38534 -769.54
lclavicle 8.29926e-015 -1.59028e-015
lhumerus -30.5822 -23.3827 86.8397
lradius 53.295
lwrist 24.6406
lhand -20.0908 -2.07704
lfingers 7.12502
lthumb 6.25218 27.8107
rfemur -50.9433 -14.2627 14.7146
rtibia 60.4117
rfoot 15.0647 9.13465
rtoes -19.274
lfemur -16.7721 0.55495 -19.2064
ltibia 43.7693
lfoot -31.9985 12.0208
ltoes 6.79595
586
root 6.50886 16.4097 -3.45756 -154.074 82.9962 -160.029
lowerback 5.19416 -0.893964 -3.763
upperback 2.1215 -1.29032 2.6319
thorax -0.577205 -0.653567 4.90873
lowerneck -5.6241 -13.2782 -3.77394
upperneck 11.8981 -18.1694 5.69048
head 5.37787 -8.68889 1.08642
rclavicle -1.6524e-014 6.95746e-015
rhumerus 26.5217 16.2508 -73.1171
rradius 134.148
rwrist -44.5376
rhand -25.1819 -19.3873
rfingers 7.12502
rthumb 1.33587 -769.363
lclavicle -1.6524e-014 6.95746e-015
lhumerus -29.4346 -24.0089 86.3864
lradius 53.1736
lwrist 24.5478
lhand -19.9656 -2.05492
lfingers 7.12502
lthumb 6.37299 27.8292
rfemur -50.0242 -14.0501 14.7358
rtibia 60.3699
rfoot 14.6946 9.02781
rtoes -18.3962
lfemur -16.8179 1.71318 -19.0851
ltibia 43.9741
lfoot -31.9601 12.0663
ltoes 5.55152
587
root 6.46249 16.4038 -3.44036 -150.922 83.7185 -156.697
lowerback 5.10909 -0.955296 -4.07832
upperback 2.1244 -1.38764 2.58355
thorax -0.508523 -0.706784 5.04057
lowerneck -5.5773 -13.2627 -3.79934
upperneck 11.9622 -18.1753 5.85986
head 5.40903 -8.68104 1.13854
rclavicle 4.63417e-015 -2.37548e-014
rhumerus 26.2086 16.4167 -73.0088
rradius 134.127
rwrist -44.3426
rhand -25.2827 -19.2595
rfingers 7.12502
rthumb 1.23854 -769.236
lclavicle 4.63417e-015 -2.37548e-014
lhumerus -28.3599 -24.6119 85.9997
lradius 53.1035
lwrist 24.4918
lhand -19.8816 -2.07849
lfingers 7.12502
lthumb 6.45411 27.8032
rfemur -49.0315 -13.7246 14.7765
rtibia 59.9693
rfoot 13.9766 8.79977
rtoes -17.9589
lfemur -16.8523 2.95976 -18.9857
ltibia 44.1828
lfoot -31.9207 12.1439
ltoes 4.28515
